<svg width="108" height="98" fill="none" xmlns="http://www.w3.org/2000/svg"><path fill-rule="evenodd" clip-rule="evenodd" d="M24.397 63.477c1.592.373 3.1.14 4.528-.682-1.567-.19-3.032.364-4.528.682zm12.655-15.445c.108 5.195-1.456 9.019-3.573 12.609-1.484 2.517-3.908 3.776-6.831 3.925-2.49.127-4.942-.067-7.316-.97-1.79-.68-2.977-1.994-3.968-3.511-1.84-2.82-4.003-5.537-4.077-9.124-.093-4.478.83-8.69 3.787-12.226 1.253-1.497 2.74-2.502 4.899-2.165 2.143.334 3.007 2.944 2.991 4.507-.007.724-.611 1.088-.967 1.513-1.623 1.934-1.954 4.355-2.719 6.613-.157.464.163.592.519.67 2.311.502 4.41.354 5.982-1.753.833-1.117 1.734-2.176 2.285-3.478.262-.619.275-1.186.045-1.845-.273-.781-.823-1.742.55-2.17.28-.087.223-.326.092-.555-.577-1-.244-1.974.841-2.5 2.198-1.07 5.614.883 5.826 3.322.022.257.038.555.174.753 1.526 2.222 1.227 4.813 1.46 6.385zM67.25 48.598c-1.255-.195-2.477-.106-3.631.434 1.247.157 2.49.296 3.631-.434zM60.329 23.63c-.526.454-1.255.23-1.566.88.41.314.787-.122 1.144-.045.498.109 1.519-.067.711 1-.06.08-.199.158-.03.242 1.4.69.352 1.579.132 2.33-.228.786-.58 1.539-.599 2.372a98.138 98.138 0 00-.021 3.495c.019 1.43.24 1.613 1.658 1.478 2.444-.232 4.16-1.994 4.1-4.443-.049-2.008.35-3.93.802-5.846.233-.987.853-1.779 1.95-1.967 1.292-.223 3.166.572 3.648 1.719.81 1.93 1.54 3.925 1.827 5.998.566 4.094.45 8.177-.698 12.19-.448 1.567-1.06 3.094-2.006 4.387-1.244 1.7-3.114 2.466-5.199 2.683-2.634.275-5.172.19-7.375-1.607-.482-.394-.787-.909-1.115-1.363-2.163-2.994-4.754-5.806-5.267-9.664-.59-4.442.094-8.704 2.382-12.617.794-1.358 1.88-2.378 3.64-2.18.717.081 1.386.294 1.882.958zM51.127 84.233c1.182.6 3.193.535 4.15-.09-1.379-.077-2.695-.177-4.15.09zm12.9-12.556c.115 3.816-.982 7.645-3.546 11.011-1.065 1.399-2.516 2.275-4.213 2.654-2.915.65-5.752.378-8.466-.934-1.579-.763-2.587-2.063-3.618-3.436-1.915-2.552-2.861-5.501-3.657-8.482-.91-3.41-.267-6.698 1.304-9.87.54-1.09.91-2.187 2.031-2.84.854-.497 1.667-.281 2.487.017.196.072.502.306.486.43-.229 1.747 1.26 3.207.808 4.99-.175.69-.271 1.402-.381 2.108-.306 1.96.76 3.405 2.773 3.624 1.96.213 3.68-.385 4.888-1.99a11.834 11.834 0 002.093-4.442c.317-1.352 1.383-2.08 2.762-1.873 2.29.342 2.859.956 3.105 3.343.015.148.007.333.092.434 1.206 1.444.837 3.21 1.053 5.256zM95.563 31.107c.786.193 1.57.51 2.296-.076-.775-.078-1.55-.276-2.296.076zM93.98 14.08c1.688.526.35 1.517.356 2.272.003.37-.425.789-.02 1.18.394.383.893.354 1.375.16 2.152-.862 3.316-2.6 3.77-4.735.334-1.568.883-3.066 1.217-4.63.299-1.402 1.73-2.145 3.141-1.825 1.686.381 2.74 1.301 2.974 3.077.277 2.11.873 4.149.81 6.34-.147 5.098-1.59 9.677-4.754 13.691-2.952 3.745-8.61 3.908-11.65.207-.985-1.201-1.898-2.579-2.077-4.252-.029-.276-.214-.548-.37-.796-2.596-4.119-2.328-8.367-.404-12.591 1.317-2.89 3.582-2.75 5.423-1.374.23.172.548.378.495.707-.068.423-.49.213-.749.3-.245.085-.586.095-.543.444.043.364.389.256.638.282.452.047.926.077 1.1.61.187.574-.464.576-.732.933zM15.258 90.267c-.247.365-.091.689.276.725.578.057.22-.373.24-.617.027-.35.19-.128.364-.096.381.072.35-.283.194-.386-.26-.17-.618-.31-.913-.276-.348.04-.254.382-.161.65zm-1.45 4.57c-.882-.273-1.888.788-2.427-.592-.003.597-.353 1.48.34 1.445.634-.033 1.587.022 2.087-.853zm5.316-3.213c.654.389.784-.417 1.475-.383-.936.73-1.472 1.525-1.836 2.525-.24.66-1.243 1.063-1.883 1.377-2.266 1.11-4.708 1.848-7.265 1.92-.775.022-1.522-.463-2.335-.52a.5.5 0 01-.47-.538c.003-.079.143-.223.2-.214.468.075.796.036.565-.567-.103-.27-.065-.642-.424-.743-.63-.176-.135.718-.62.677-.463.392.142-1.538-.698-.303-.053-.042-.132-.074-.155-.129-.499-1.202-1.668-1.871-2.319-2.998-.62-1.072-1.415-2.043-1.883-3.222C.07 84.966-.375 81.322.33 77.576c.367-1.948 1.603-2.742 3.388-2.395.61.118 1.083.424 1.326.945.92 1.97 2.306 3.805 1.586 6.239-.223.752.205 1.556.74 2.172.331.38.735.605 1.295.32 1.07-.546 2.132-1.069 2.888-2.067.54-.713 1.184-1.347 1.76-2.035.794-.95 1.01-2.155 1.1-3.297.135-1.74 1.256-2.556 2.88-1.823.661.299 1.304.744 1.583 1.395.737 1.723 1.574 3.378 1.972 5.276.388 1.853.499 3.653.405 5.506-.041.806-.559 1.507-.487 2.351.013.156-.349.479-.554.494-.665.05-.706.642-1.087.967zM85.342 57.624c-.684.706-.886.774-1.116.325-.312-.608-1.203-.816-1.662-.375-.283.27-.278.622-.033.874.38.392 2.603-.242 2.811-.824zm1.777 8.446c-.43-.405-1.138-.12-1.36-.399-.768-.968-1.285.224-1.934.15-.114-.014-.55.407-.424.7.127.297.681.528.843.39.828-.71 1.953-.29 2.875-.84zm-2.404-4.574c-.457-.007-.99.008-1.063.632-.087.736.59.404.925.564.416.199.785-.194 1.13-.075.376.13.604.02.74-.256.198-.403-.172-.693-.338-.995-.175-.319-.468-.08-.68.032-.217.115-.377.397-.714.097zm9.138-11.664c.588.249 1.084.555 1.174 1.151.07.463-.469.225-.73.527 1.246.03.999 1.124.867 1.578-.348 1.197.093 2.341-.047 3.511-.092.769-.27 1.547-.333 2.325-.066.806-.606-.305-1.025-.247-.22.24-.204.492.078.635.289.147.802.117.761.525-.049.495-.192 1.254-.515 1.395-.87.379-.668 1.241-.614 1.64.115.862-.278.757-.736.627-.662-.187-1.06.024-1.192.666-.17.82-1.09.684-1.502 1.261-.403.566-1.035.965-.98 1.811-1.136-.136-.61-1.138-1.062-1.746-.16 1.986-1.628 1.952-2.957 2.1-.442.05-.942-.12-1.33.03-.813.316-.754-.077-.548-.82-.454.885-.873 1.186-1.511.451-.231-.266-.615-.226-.943-.299-.604-.136-.677-.276-.661-1.054.004-.219-.134-.197-.269-.258-1.386-.635-1.987-1.795-1.998-3.315-.005-.723.291-1.877-1.137-1.801-.197.01-.236-.14-.3-.275-1.31-2.79-.884-5.473.591-8.04.681-1.185 2.424-1.775 3.748-1.309.433.152.899.565 1.082.977.184.41-.277.574-.697.628-.327.041-.226.322-.156.537.117.36.36.453.704.326.836-.31 1.025-.172.927.82-.072.727.963 1.016 1.543 1.41.392.266.601-.306.717-.634.084-.237.214-.414.403-.511 1.833-.939 2.035-2.737 2.319-4.461.133-.81.154-1.681.31-2.446.159-.776.404-1.59.607-2.389.325-1.282 1.381-1.323 2.393-1.266.654.037 1.301.262 1.94.446.154.044.386.268.372.384-.123 1.008 1.059 1.728.574 2.86-.122.287.27.857.525 1.227.485.704.504.726-.392 1.023zM44.747 28.85c-.917.414-1.562.883-1.947 1.652.629-.488 1.681-.488 1.947-1.652zM41.17 15.224c.852-.158 1.268-.665 1.747-1.055.927-.755 1.685-.514 1.96.701.12.528.148.821.865.968.708.144.866 1.155 1.187 1.812.99 2.028 1.37 4.207 1.242 6.447-.171 2.988-1.658 5.23-4.103 6.896-1.12.764-2.272 1.213-3.684 1.047-.673-.079-1.06-.508-1.578-.765-1.782-.885-3.622-1.651-5.286-2.778-1.79-1.21-3.873-5.747-3-8.152.56-1.54 1.502-2.47 3.069-2.796.9-.188 1.313.186 1.379 1.289.484-.34.719-.736.853-1.266.314-1.24.775-2.427 1.358-3.575.692-1.362 1.841-2.027 3.255-2.36.556-.131 1.11-.062 1.447.381.328.431.3.952.002 1.473-.275.48-.43 1.03-.713 1.733zM67.072 5.341c.7-1.587 1.017-3.226 2.252-4.383.19-.177.355-.409.578-.517.532-.257 1.208-.674 1.669-.277.4.344.333 1.073.13 1.665-.098.285-.461.675-.044.885.353.177.554-.28.78-.515.13-.136.227-.304.363-.431.254-.238.377-.752.856-.562.382.15.72.426.776.896.052.435.048.84.725.545.345-.15.587.297.773.55 2.064 2.79 2.492 5.678-.19 8.523-.822.87-1.664 1.717-2.496 2.576-.457.472-1.012.466-1.566.27-.625-.223.05-.73-.23-1.136-.636 1.022-1.248.886-2.062.149-.505-.457-1.11-1.028-2.059-.646-.35.14-1.015-.248-1.423-.548-2.045-1.505-3.276-3.497-3.324-6.089-.02-1.028.318-1.94 1.358-2.403.199-.088.601-.19.616-.156.477 1.073 1.867.644 2.517 1.604z" fill="#FDFD96"/></svg>