<svg width="1000" height="1000" fill="none" xmlns="http://www.w3.org/2000/svg"><path opacity=".64" d="M492.2 768.1c129.842 0 235.1-21.177 235.1-47.3 0-26.123-105.258-47.3-235.1-47.3-129.842 0-235.1 21.177-235.1 47.3 0 26.123 105.258 47.3 235.1 47.3z" fill="#68CCE9"/><path d="M379.5 713.2c3.3-10.7 13.4-16.4 29.8-21.2 10.4-3 23.6-4.4 44.3-8.6 10.1-2 17.2-6 17.2-6v11.5s-68.5 13.5-79.2 31.2c-5.2 8.7-3.6 30 20.9 32.2-7.5 1.1-19.8-.8-26.4-7.5-8.2-8.3-10.4-19.4-6.6-31.6z" fill="#282323" stroke="#000" stroke-width="4" stroke-miterlimit="10" stroke-linecap="round" stroke-linejoin="round"/><path d="M470.8 688.9s-41 7.6-62.9 17c-19.2 8.3-18.6 16.9-19.1 25.7-.3 5.1 3.3 17.7 17.9 19.9 17.4 2.6 37.9-.2 64.1-16.9v-45.7z" fill="#442C2A"/><path opacity=".37" d="M388.8 731.6c.4-7.1.1-14.1 10.1-20.9-.4 2.5-.5 4.9-.6 7.4-.3 5.1 12-1.5 26.6.6 15.2 2.3 24.2 19.7 45.9 8v7.8c-26.2 16.7-46.7 19.4-64.1 16.9-14.6-2.1-18.2-14.8-17.9-19.8z" fill="#442C2A"/><path d="M470.8 688.9s-41 7.6-62.9 17c-19.2 8.3-18.6 16.9-19.1 25.7-.3 5.1 3.3 17.7 17.9 19.9 17.4 2.6 37.9-.2 64.1-16.9v-45.7zM432.8 712.4c-3.3 1.8-2.5 19.3 5.5 21.7M445.3 711.1c-3.4 4.8-1 16.1 5.1 18.9M456.8 707.1c-3.4 4.8-1 16.1 5.1 18.9" stroke="#000" stroke-width="4" stroke-miterlimit="10" stroke-linecap="round" stroke-linejoin="round"/><path d="M574.8 655.3c-21.6 15-52.3 23.6-84.4 23.6-32 0-62.8-8.6-84.4-23.6-9.9-6.9-26.5-21.3-26.5-40.5s16.6-33.6 26.5-40.5c21.6-15 52.3-23.6 84.4-23.6 32 0 62.8 8.6 84.4 23.6 9.9 6.9 26.5 21.3 26.5 40.5s-16.6 33.6-26.5 40.5z" fill="#151E28"/><path d="M673.7 630.8c-.4 2-.8 3.9-1.4 5.9-15.6 56.9-90.8 100.1-181.3 100.1-90.7 0-166.1-43.4-181.4-100.5-.4-1.6-.8-3.2-1.1-4.8-.4-3-.3-6 .3-9 3.7-16.8 24.1-26.5 45.6-21.7 14.1 3.1 25.1 11.8 30 22.1.5 2.2 1.3 4.4 2.2 6.5 5.2 12 15.6 21 22.6 26 20.9 15 50.8 23.6 81.8 23.6 31.1 0 60.9-8.6 81.8-23.6 7.1-5.1 17.6-14.2 22.7-26.2.8-1.9 1.5-4 2-6 4.8-10.4 15.9-19.1 30.1-22.3 21.5-4.8 41.9 5 45.6 21.7.7 2.6.8 5.4.5 8.2z" fill="#2A3749"/><path opacity=".67" d="M673.2 622.4c-.1-.5-.2-.9-.4-1.4-.3 1.6-.7 3.3-1.2 4.9C656.2 682.8 580.9 726 490.5 726c-90.7 0-166.1-43.4-181.4-100.5-.2-.6-.3-1.2-.5-1.9-.4 2.6-.5 5.2-.1 7.7.3 1.6.7 3.2 1.1 4.8 15.3 57.1 90.7 100.5 181.4 100.5 90.5 0 165.7-43.2 181.3-100.1.5-1.9 1-3.9 1.4-5.9.3-2.6.2-5.4-.5-8.2z" fill="#151E28"/><path d="M673.7 630.8c-.4 2-.8 3.9-1.4 5.9-15.6 56.9-90.8 100.1-181.3 100.1-90.7 0-166.1-43.4-181.4-100.5-.4-1.6-.8-3.2-1.1-4.8-.4-3-.3-6 .3-9 3.7-16.8 24.1-26.5 45.6-21.7 14.1 3.1 25.1 11.8 30 22.1.5 2.2 1.3 4.4 2.2 6.5 5.2 12 15.6 21 22.6 26 20.9 15 50.8 23.6 81.8 23.6 31.1 0 60.9-8.6 81.8-23.6 7.1-5.1 17.6-14.2 22.7-26.2.8-1.9 1.5-4 2-6 4.8-10.4 15.9-19.1 30.1-22.3 21.5-4.8 41.9 5 45.6 21.7.7 2.6.8 5.4.5 8.2z" stroke="#000" stroke-width="4" stroke-miterlimit="10" stroke-linecap="round" stroke-linejoin="round"/><path d="M492.2 648.4c49.761 0 90.1-13.7 90.1-30.6 0-16.9-40.339-30.6-90.1-30.6-49.761 0-90.1 13.7-90.1 30.6 0 16.9 40.339 30.6 90.1 30.6z" fill="#9B2121"/><path d="M492.2 648.4c49.761 0 90.1-13.7 90.1-30.6 0-16.9-40.339-30.6-90.1-30.6-49.761 0-90.1 13.7-90.1 30.6 0 16.9 40.339 30.6 90.1 30.6z" stroke="#000" stroke-width="4" stroke-miterlimit="10" stroke-linecap="round" stroke-linejoin="round"/><path d="M594.8 551H387.2c-15.9 0-28.2-13.9-26.2-29.7l9.2-73.5c2.6-21 20.4-36.7 41.6-36.7h158.6c21.1 0 38.9 15.7 41.6 36.7l9.2 73.5c1.8 15.8-10.5 29.7-26.4 29.7z" fill="#F1534D"/><path d="M594.8 551H387.2c-15.9 0-28.2-13.9-26.2-29.7l9.2-73.5c2.6-21 20.4-36.7 41.6-36.7h158.6c21.1 0 38.9 15.7 41.6 36.7l9.2 73.5c1.8 15.8-10.5 29.7-26.4 29.7zM409.7 473.2l-2 25.1M573.8 473.2l2 25.1" stroke="#000" stroke-width="4" stroke-miterlimit="10" stroke-linecap="round" stroke-linejoin="round"/><path d="M594.8 551H387.2c-15.9 0-28.2-13.9-26.2-29.7l9.2-73.5c2.6-21 20.4-36.7 41.6-36.7h158.6c21.1 0 38.9 15.7 41.6 36.7l9.2 73.5c1.8 15.8-10.5 29.7-26.4 29.7z" fill="#F1534D"/><g opacity=".24" fill="#9B2121"><path opacity=".24" d="M370.1 455.6c2.6-21 20.4-36.7 41.6-36.7h158.6c21.1 0 38.9 15.7 41.6 36.7l9.1 72.9c.3-2.3.4-4.7.1-7.2l-9.2-73.5c-2.6-21-20.4-36.7-41.6-36.7H411.7c-21.1 0-38.9 15.7-41.6 36.7l-9.2 73.5c-.3 2.4-.3 4.8.1 7.2l9.1-72.9z"/><path opacity=".24" d="M420.9 418.9s12.3 2.2 13.3 9c.8 5.5.7 9.1 2.8 11.3 2.1 2.2 7 6.7 16.9 6.7-5.5-5.5-5.6-24.8-7.1-24.8-1.4 0-5-9.6-5-9.6l-4.8-2.2c.1 0-17.6 2.2-16.1 9.6zM552.3 418.9s-12.3 2.2-13.3 9c-.8 5.5-.7 9.1-2.8 11.3-2.1 2.1-7 6.7-16.9 6.7 5.5-5.5 5.6-24.8 7.1-24.8 1.4 0 5-9.6 5-9.6l4.8-2.2c-.1 0 17.6 2.2 16.1 9.6z"/></g><path d="M594.8 551H387.2c-15.9 0-28.2-13.9-26.2-29.7l9.2-73.5c2.6-21 20.4-36.7 41.6-36.7h158.6c21.1 0 38.9 15.7 41.6 36.7l9.2 73.5c1.8 15.8-10.5 29.7-26.4 29.7zM409.7 473.2l-2 25.1M573.8 473.2l2 25.1" stroke="#000" stroke-width="4" stroke-miterlimit="10" stroke-linecap="round" stroke-linejoin="round"/><path d="M464.3 369.3l-32.9-1.7-15.4 1.7s-10.3 7.7-10.3 9.8c0 2.1 1 19.2 1 19.2s24.3 3.3 26.9 5.8c2.6 2.5 18 16.9 18 16.9l14.9-5.8 7.8-20.8-10-25.1z" fill="#9B2121"/><path d="M458.5 356.6h-38c-15.3 0-27.8 12.4-27.8 27.8 0 15.3 12.4 27.8 27.8 27.8h5c8.1 0 14.6 6.5 14.6 14.6v1.5c0 9.7 7.9 17.6 17.6 17.6v-18c.2 0 .4.2.4.4v-1.5c0-18-14.6-32.6-32.6-32.6h-5c-5.4 0-9.8-4.4-9.8-9.8s4.4-9.8 9.8-9.8h38v-18z" fill="#F1534D"/><path d="M456.2 415.5c-4.6-12.4-16.6-21.4-30.6-21.4h-5c-5.4 0-9.8-4.4-9.8-9.8s4.4-9.8 9.8-9.8h38v-18h-38c-15.3 0-27.8 12.4-27.8 27.8 0 15.3 12.4 27.8 27.8 27.8h5c8.1 0 14.6 6.5 14.6 14.6v1.5c0 9.7 7.9 17.6 17.6 17.6" stroke="#000" stroke-width="4" stroke-miterlimit="10" stroke-linecap="round" stroke-linejoin="round"/><path d="M507.8 369.3l32.9-1.7 15.4 1.7s10.3 7.7 10.3 9.8c0 2.1-1 19.2-1 19.2s-24.3 3.3-26.9 5.8c-2.6 2.6-18 16.9-18 16.9l-14.9-5.8-7.8-20.8 10-25.1z" fill="#9B2121"/><path d="M513.6 356.6h38c15.3 0 27.8 12.4 27.8 27.8 0 15.3-12.4 27.8-27.8 27.8h-5c-8.1 0-14.6 6.5-14.6 14.6v1.5c0 9.7-7.9 17.6-17.6 17.6v-18c-.2 0-.4.2-.4.4v-1.5c0-18 14.6-32.6 32.6-32.6h5c5.4 0 9.8-4.4 9.8-9.8s-4.4-9.8-9.8-9.8h-38v-18z" fill="#F1534D"/><path d="M516 415.5c4.6-12.4 16.6-21.4 30.6-21.4h5c5.4 0 9.8-4.4 9.8-9.8s-4.4-9.8-9.8-9.8h-38v-18h38c15.3 0 27.8 12.4 27.8 27.8 0 15.3-12.4 27.8-27.8 27.8h-5c-8.1 0-14.6 6.5-14.6 14.6v1.5c0 9.7-7.9 17.6-17.6 17.6" stroke="#000" stroke-width="4" stroke-miterlimit="10" stroke-linecap="round" stroke-linejoin="round"/><path d="M487.9 431.7c21.539 0 39-17.461 39-39s-17.461-39-39-39-39 17.461-39 39 17.461 39 39 39z" fill="#F46262"/><path d="M450.6 381.2c10.8 6.9 23.6 11 37.3 11 13.7 0 26.5-4 37.3-11-4.9-16-19.7-27.6-37.3-27.6-17.5.1-32.4 11.7-37.3 27.6z" fill="#F1534D"/><path d="M487.9 431.7c21.539 0 39-17.461 39-39s-17.461-39-39-39-39 17.461-39 39 17.461 39 39 39z" stroke="#000" stroke-width="4" stroke-miterlimit="10" stroke-linecap="round" stroke-linejoin="round"/><path d="M487.9 415.3c-12.7 0-23-10.3-23-23v-17.2c0-3.2 2.6-5.8 5.8-5.8h34.5c3.2 0 5.8 2.6 5.8 5.8v17.2c-.1 12.7-10.4 23-23.1 23z" fill="#FFC897"/><path d="M505.2 369.3h-34.5c-3.2 0-5.8 2.8-5.8 6.2v14.1c7.2 2.7 14.9 4.2 23 4.2s15.8-1.5 23-4.2v-14.1c0-3.4-2.6-6.2-5.7-6.2z" fill="#E5A973"/><path d="M487.9 415.3c-12.7 0-23-10.3-23-23v-17.2c0-3.2 2.6-5.8 5.8-5.8h34.5c3.2 0 5.8 2.6 5.8 5.8v17.2c-.1 12.7-10.4 23-23.1 23z" stroke="#000" stroke-width="4" stroke-miterlimit="10" stroke-linecap="round" stroke-linejoin="round"/><path d="M512.8 674.4h-21.4v68.3h21.4v-68.3z" fill="#607691"/><path d="M512.8 674.4h-21.4v68.3h21.4v-68.3zM386.5 629.2c-.9-2.1-1.6-4.2-2.2-6.5 1.1 2.2 1.8 4.3 2.2 6.5zM595.6 629c.4-2.1 1.1-4.1 2-6-.5 2.1-1.2 4.1-2 6z" stroke="#000" stroke-width="4" stroke-miterlimit="10" stroke-linecap="round" stroke-linejoin="round"/><path d="M595.3 624.2H386.8c-7.4 0-13.7-5.5-14.7-12.9l-13-101.8c-1.1-8.8 5.8-16.7 14.7-16.7h234.5c8.9 0 15.8 7.8 14.7 16.7l-13 101.8c-1 7.3-7.3 12.9-14.7 12.9z" fill="#B5B5B5"/><path opacity=".21" d="M609.9 604.9c-.9 7.4-7.2 12.9-14.7 12.9H386.8c-7.4 0-13.7-5.5-14.7-12.9l-12.8-100.3c-.3 1.6-.4 3.2-.2 4.9l13 101.8c.9 7.4 7.2 12.9 14.7 12.9h208.5c7.4 0 13.7-5.5 14.7-12.9l13-101.8c.2-1.7.1-3.3-.2-4.9l-12.9 100.3z" fill="#7E7E7E"/><path opacity=".21" d="M359.2 510.4c1.2-6.8 7.2-12.2 14.5-12.2h234.5c7.4 0 13.3 5.3 14.5 12.2l.1-1c1.1-8.8-5.8-16.7-14.7-16.7H373.8c-8.9 0-15.8 7.8-14.7 16.7l.1 1z" fill="#7E7E7E"/><path d="M595.3 624.2H386.8c-7.4 0-13.7-5.5-14.7-12.9l-13-101.8c-1.1-8.8 5.8-16.7 14.7-16.7h234.5c8.9 0 15.8 7.8 14.7 16.7l-13 101.8c-1 7.3-7.3 12.9-14.7 12.9z" stroke="#000" stroke-width="4" stroke-miterlimit="10" stroke-linecap="round" stroke-linejoin="round"/><path opacity=".66" d="M500.9 552.3c-4.5 0-8.1-3.6-8.1-8.1 0-.3 0-.6.1-.9-.8-.1-1.6-.2-2.4-.2-7.3 0-13.3 6-13.3 13.3 0 7.3 6 13.3 13.3 13.3 7.3 0 13.3-6 13.3-13.3 0-1.5-.3-3-.7-4.4-.7.1-1.4.3-2.2.3z" fill="#B5B5B5"/><path d="M604.1 713.2c-3.3-10.7-13.4-16.4-29.8-21.2-10.4-3-23.6-4.4-44.3-8.6-10.1-2-17.2-6-17.2-6v11.5s68.5 13.5 79.2 31.2c5.2 8.7 3.6 30-20.9 32.2 7.5 1.1 19.8-.8 26.4-7.5 8.2-8.3 10.4-19.4 6.6-31.6z" fill="#282323" stroke="#000" stroke-width="4" stroke-miterlimit="10" stroke-linecap="round" stroke-linejoin="round"/><path d="M512.8 688.9s41 7.6 62.9 17c19.2 8.3 18.6 16.9 19.1 25.7.3 5.1-3.3 17.7-17.9 19.9-17.4 2.6-37.9-.2-64.1-16.9v-45.7z" fill="#442C2A"/><path opacity=".37" d="M594.8 731.6c-.4-7.1-.1-14.1-10.1-20.9.4 2.5.5 4.9.6 7.4.3 5.1-3.3 17.7-17.9 19.9-15.2 2.3-32.9.4-54.6-11.3v7.8c26.2 16.7 46.7 19.4 64.1 16.9 14.7-2.1 18.2-14.8 17.9-19.8z" fill="#442C2A"/><path d="M512.8 688.9s41 7.6 62.9 17c19.2 8.3 18.6 16.9 19.1 25.7.3 5.1-3.3 17.7-17.9 19.9-17.4 2.6-37.9-.2-64.1-16.9v-45.7zM550.8 712.4c3.3 1.8 2.5 19.3-5.5 21.7M538.3 711.1c3.4 4.8 1 16.1-5.1 18.9M526.8 707.1c3.4 4.8 1 16.1-5.1 18.9" stroke="#000" stroke-width="4" stroke-miterlimit="10" stroke-linecap="round" stroke-linejoin="round"/><path d="M452.8 435.7v53.2M520.3 435.7v37.5" stroke="#000" stroke-width="6" stroke-miterlimit="10" stroke-linecap="round" stroke-linejoin="round"/><path d="M520.3 484.5a8.3 8.3 0 100-16.6 8.3 8.3 0 000 16.6z" fill="#000"/><path d="M487.9 386.2c-34.8 0-63.1-28.2-63.1-63.1v-73.2H551v73.2c0 34.8-28.2 63.1-63.1 63.1z" fill="#FFC897"/><path d="M487.9 377.5c-34.8 0-63.1-28.2-63.1-63.1v8.7c0 34.8 28.2 63.1 63.1 63.1 34.8 0 63.1-28.2 63.1-63.1v-8.7c0 34.8-28.2 63.1-63.1 63.1z" fill="#E5A973"/><path d="M487.9 386.2c-34.8 0-63.1-28.2-63.1-63.1v-73.2H551v73.2c0 34.8-28.2 63.1-63.1 63.1z" stroke="#000" stroke-width="4" stroke-miterlimit="10" stroke-linecap="round" stroke-linejoin="round"/><path d="M551.5 257.2c-.2-3.4-.4-6.9-.5-10.3-42 2-84.2 1.7-126.1-2-.3 3.9-.5 7.8-.8 11.7 1.9 1.7 3.9 3.5 5.8 5.2 1.6.8 3.7 1.9 5.6 2.9 8.4 4.4 20.1 10 31.3 12.2 4.1.8 8.4 1.2 12.8 1.1 18.9-.2 34.8-7.7 41.5-10.8 1-.5 1.8-.9 2.3-1 .4-.2.8-.3 1.4-.3 1.2 0 2.6.3 4.3.6 2.2.5 4.8 1 7.7.8 3.3-.2 6.3-1.2 9.2-3.1 1.7-2.4 3.6-4.7 5.5-7z" fill="#E5A973"/><path d="M521.1 219.2s-50.5-33.3-92.3 3.9c-7.8 6.9-10.9 16.8-10.9 25.9v48.2h7v-35c0-2.6 1.8-4.6 4-4.6 3.6 0 23.1 10.4 39.6 13.3 24.9 4.3 47.6-7.2 52.5-8.9 8.4-3 15.2 7.4 25.8-4.3h.4c2.2 0 4 2.1 4 4.6v35h7v-48c-.2-11.8-13.8-41.4-37.1-30.1z" fill="#231A17"/><g opacity=".34" fill="#231A17"><path opacity=".34" d="M424.8 290.6h-7v6.6h7v-6.6zM558 290.6h-7v6.6h7v-6.6z"/></g><path d="M521.1 219.2s-50.5-33.3-92.3 3.9c-7.8 6.9-10.9 16.8-10.9 25.9v48.2h7v-35c0-2.6 1.8-4.6 4-4.6 3.6 0 23.1 10.4 39.6 13.3 24.9 4.3 47.6-7.2 52.5-8.9 8.4-3 15.2 7.4 25.8-4.3h.4c2.2 0 4 2.1 4 4.6v35h7v-48c-.2-11.8-13.8-41.4-37.1-30.1zM478.4 251.7s-54.2 3.5-65.7-25.3M486.1 244.8s-52.2-3.3-65.8-32.1" stroke="#000" stroke-width="4" stroke-miterlimit="10" stroke-linecap="round" stroke-linejoin="round"/><path d="M551 289.4v32.8c7 0 12.6-7.3 12.6-16.4 0-9.1-5.6-16.4-12.6-16.4z" fill="#FFC897"/><path d="M551 291.2v29.1c4.1-2.7 6.9-8.2 6.9-14.6 0-6.3-2.8-11.8-6.9-14.5z" fill="#E5A973"/><path d="M551 289.4v32.8c7 0 12.6-7.3 12.6-16.4 0-9.1-5.6-16.4-12.6-16.4z" stroke="#000" stroke-width="4" stroke-miterlimit="10" stroke-linecap="round" stroke-linejoin="round"/><path d="M424.9 289.4v32.8c-7 0-12.6-7.3-12.6-16.4-.1-9.1 5.6-16.4 12.6-16.4z" fill="#FFC897"/><path d="M424.9 291.8c-3.6 2.9-6.1 8.1-6.1 14s2.4 11.1 6.1 14v-28z" fill="#E5A973"/><path d="M424.9 289.4v32.8c-7 0-12.6-7.3-12.6-16.4-.1-9.1 5.6-16.4 12.6-16.4zM485.3 316.1l-4.2 13.7c0 1.5 4.9.3 9.9 1.5" stroke="#000" stroke-width="4" stroke-miterlimit="10" stroke-linecap="round" stroke-linejoin="round"/><path d="M508.9 341.7c1.5 10.4-11.9 19.6-22.4 17.7" stroke="#000" stroke-width="3" stroke-miterlimit="10" stroke-linecap="round" stroke-linejoin="round"/><path d="M465.2 304.5c2.32 0 4.2-2.015 4.2-4.5s-1.88-4.5-4.2-4.5c-2.32 0-4.2 2.015-4.2 4.5s1.88 4.5 4.2 4.5z" stroke="#000" stroke-width="2" stroke-miterlimit="10" stroke-linecap="round" stroke-linejoin="round"/><path d="M465.2 304.5c2.32 0 4.2-2.015 4.2-4.5s-1.88-4.5-4.2-4.5c-2.32 0-4.2 2.015-4.2 4.5s1.88 4.5 4.2 4.5z" fill="#000"/><path d="M450.7 290.5c2.1-2.5 7-4.2 12.8-4.2 4.6 0 8.6 1.1 11.1 2.8" stroke="#000" stroke-width="3" stroke-miterlimit="10" stroke-linecap="round" stroke-linejoin="round"/><path d="M511.2 304.5c2.32 0 4.2-2.015 4.2-4.5s-1.88-4.5-4.2-4.5c-2.32 0-4.2 2.015-4.2 4.5s1.88 4.5 4.2 4.5z" stroke="#000" stroke-width="2" stroke-miterlimit="10" stroke-linecap="round" stroke-linejoin="round"/><path d="M511.2 304.5c2.32 0 4.2-2.015 4.2-4.5s-1.88-4.5-4.2-4.5c-2.32 0-4.2 2.015-4.2 4.5s1.88 4.5 4.2 4.5z" fill="#000"/><path d="M525.7 290.5c-2.1-2.5-7-4.2-12.8-4.2-4.6 0-8.6 1.1-11.1 2.8" stroke="#000" stroke-width="3" stroke-miterlimit="10" stroke-linecap="round" stroke-linejoin="round"/></svg>